<?xml version="1.0" standalone="no"?>
<!DOCTYPE svg PUBLIC "-//W3C//DTD SVG 1.1//EN" "http://www.w3.org/Graphics/SVG/1.1/DTD/svg11.dtd" >
<svg xmlns="http://www.w3.org/2000/svg">
<metadata>Generated by IcoMoon</metadata>
<defs>
<font id="icomoon" horiz-adv-x="1024">
<font-face units-per-em="1024" ascent="960" descent="-64" />
<missing-glyph horiz-adv-x="1024" />
<glyph unicode="&#x20;" horiz-adv-x="512" d="" />
<glyph unicode="&#xe900;" glyph-name="menu-usuario" horiz-adv-x="1039" d="M683.955 430.611c77.283 54.098 127.517 139.109 127.517 239.577 0 158.43-131.381 289.811-293.675 289.811-158.43 0-289.811-131.381-289.811-289.811 0-100.468 50.234-189.343 127.517-239.577-204.8-69.555-355.502-266.626-355.502-494.611h115.925c0 224.121 181.615 401.872 401.872 401.872 224.121 0 401.872-181.615 401.872-401.872h115.925c3.864 227.985-146.838 425.057-351.638 494.611zM517.796 844.075c96.604 0 177.751-77.283 177.751-173.887s-77.283-173.887-173.887-173.887c-96.604 0-173.887 77.283-173.887 173.887s73.419 173.887 170.023 173.887z" />
<glyph unicode="&#xe901;" glyph-name="menu-ofimatica" horiz-adv-x="1459" d="M1061.786 963.779l-355.188-551.675 60.458-37.786 317.402 483.661 90.686-56.679-317.402-487.439 60.458-37.786 317.402 483.661 117.137-75.572-313.624-487.439 60.458-37.786 358.967 547.897zM0-3.542h540.339v-56.679h-540.339v56.679zM782.17-14.878l260.723 75.572-68.015 45.343-143.587-45.343-109.579 71.793-7.557 143.587-64.236 41.565 7.557-177.594v-200.266l124.694 45.343zM782.17 49.358l-56.679-18.893-3.779 56.679 60.458-37.786z" />
<glyph unicode="&#xe902;" glyph-name="menu-portfolio-digital" horiz-adv-x="1028" d="M993.318 235.146l-237.783 402.697c69.034 19.176 122.727 84.375 122.727 157.243 0 92.045-72.869 164.914-164.914 164.914h-552.27c-88.21-7.67-157.243-72.869-161.079-157.243-3.835-42.187 7.67-80.539 19.176-111.221l210.936-425.708h-34.517c-88.21 0-164.914-72.869-164.914-164.914s72.869-164.914 164.914-164.914h671.161c88.21 0 164.914 72.869 164.914 164.914 0 49.858-15.341 95.88-38.352 134.232zM283.805 902.472h429.543c61.363 0 107.386-46.022 107.386-107.386 0-57.528-49.858-107.386-107.386-107.386h-429.543c23.011 26.846 38.352 65.199 38.352 107.386s-11.506 76.704-38.352 107.386zM195.596-2.637c-57.528 0-107.386 49.858-107.386 107.386s49.858 107.386 107.386 107.386h61.363l30.682-61.363 3.835-3.835c7.67-7.67 11.506-23.011 11.506-42.187 0-61.363-49.858-107.386-107.386-107.386zM866.757-2.637h-548.434c23.011 26.846 38.352 65.199 38.352 107.386 0 15.341-3.835 49.858-19.176 72.869l-268.464 540.764c-11.506 26.846-15.341 53.693-11.506 80.539 3.835 57.528 46.022 99.715 107.386 103.551 53.693 0 103.551-49.858 103.551-107.386s-49.858-103.551-107.386-103.551v-57.528h529.258l249.288-429.543c19.176-26.846 30.682-65.199 30.682-103.551 3.835-57.528-46.022-103.551-103.551-103.551zM705.678 503.61c0 11.506-7.67 19.176-19.176 19.176h-383.521c-11.506 0-19.176-7.67-19.176-19.176s7.67-19.176 19.176-19.176h383.521c11.506 0 19.176 7.67 19.176 19.176zM763.206 392.39c0 11.506-7.67 19.176-19.176 19.176h-387.356c-11.506 0-19.176-7.67-19.176-19.176s7.67-19.176 19.176-19.176h387.356c11.506 0 19.176 7.67 19.176 19.176zM790.052 300.345h-387.356c-11.506 0-19.176-7.67-19.176-19.176s7.67-19.176 19.176-19.176h387.356c11.506 0 19.176 7.67 19.176 19.176s-7.67 19.176-19.176 19.176zM674.996 169.948h-214.772c-11.506 0-19.176-7.67-19.176-19.176s7.67-19.176 19.176-19.176h214.772c11.506 0 19.176 7.67 19.176 19.176s-7.67 19.176-19.176 19.176z" />
<glyph unicode="&#xe903;" glyph-name="menu-datos-academicos" horiz-adv-x="1442" d="M1255.097 960c-83.673 0-151.409-67.735-151.409-151.409 0-7.969 0-11.953 0-19.922l-135.471-99.611c-23.907 11.953-47.813 19.922-75.704 19.922-47.813 0-91.642-23.907-119.533-55.782l-87.658 31.875c0 0 0 3.984 0 3.984 0 83.673-67.735 151.409-155.393 151.409-83.673 0-151.409-63.751-151.409-151.409 0-11.953 0-23.907 3.984-31.875l-119.533-87.658c-23.907 15.938-51.798 23.907-83.673 23.907-83.673 0-151.409-63.751-151.409-151.409 0-83.673 67.735-151.409 155.393-151.409 83.673 0 151.409 63.751 151.409 151.409 0 15.938-3.984 31.875-7.969 47.813l123.518 83.673c27.891-19.922 59.767-31.875 95.626-31.875 43.829 0 83.673 19.922 111.564 51.798l91.642-31.875c0-83.673 67.735-147.424 147.424-147.424 83.673 0 151.409 63.751 151.409 151.409 0 19.922-3.984 35.86-11.953 51.798l119.533 87.658c27.891-23.907 63.751-39.844 99.611-39.844 83.673 0 151.409 67.735 151.409 151.409s-67.735 143.44-151.409 143.44zM183.284 394.21c-27.891 0-55.782 15.938-55.782 51.798 0 31.875 19.922 51.798 51.798 51.798s55.782-19.922 55.782-51.798c0-31.875-19.922-51.798-51.798-51.798zM541.883 641.245c-27.891 0-55.782 23.907-55.782 51.798s19.922 51.798 51.798 51.798c27.891 0 55.782-23.907 55.782-51.798 0-31.875-19.922-51.798-51.798-51.798zM896.498 513.743c-27.891 0-51.798 19.922-51.798 51.798s19.922 51.798 51.798 51.798c23.907 0 51.798-19.922 51.798-51.798s-19.922-51.798-51.798-51.798zM1255.097 760.778c-27.891 0-51.798 23.907-51.798 51.798s23.907 51.798 51.798 51.798 51.798-23.907 51.798-51.798-23.907-51.798-51.798-51.798zM1402.521 11.704h-1362.677c-23.907 0-39.844-15.938-39.844-39.844s15.938-39.844 39.844-39.844h1362.677c23.907 0 39.844 15.938 39.844 39.844s-15.938 39.844-39.844 39.844z" />
<glyph unicode="&#xe904;" glyph-name="menu-entorno-aprendizaje" horiz-adv-x="774" d="M439.204 661.536h179.564v4.853l-157.725 152.872h-31.545v-148.019c0-4.853 4.853-9.706 9.706-9.706 0 0 0 0 0 0zM691.564 960h-482.882c-43.678 0-80.076-36.398-80.076-80.076v-60.664h-92.209c-19.412 0-36.398-16.986-36.398-36.398v-812.891c0-19.412 16.986-36.398 36.398-36.398 0 0 0 0 0 0h548.398c19.412 0 36.398 14.559 36.398 33.972 0 0 0 0 0 0v80.076h72.796c43.678 0 80.076 36.398 80.076 80.076v752.227c-2.427 43.678-36.398 80.076-82.502 80.076zM747.374 132.55c0-31.545-24.265-55.81-55.81-55.81h-72.796v560.531h-179.564c-19.412 0-33.972 14.559-33.972 33.972 0 0 0 0 0 0v148.019h-252.36v60.664c0 31.545 26.692 55.81 55.81 55.81h482.882c31.545 0 55.81-24.265 55.81-55.81v-747.374z" />
<glyph unicode="&#xe905;" glyph-name="libro" horiz-adv-x="896" d="M832 832v-832h-672c-53 0-96 43-96 96s43 96 96 96h608v768h-640c-70.4 0-128-57.6-128-128v-768c0-70.4 57.6-128 128-128h768v896h-64zM160.1 128v0c-0.1 0-0.1 0 0 0-17.7 0-32.1-14.3-32.1-32s14.3-32 32-32c0 0 0 0 0.1 0v0h607.9v64c-0.1 0-607.9 0-607.9 0z" />
<glyph unicode="&#xe906;" glyph-name="blogosfera" horiz-adv-x="1017" d="M733.538 910.769c26.256-14.769 52.513-29.538 77.128-47.59 4.923-6.564 8.205-11.487 9.846-18.051-27.897 21.333-59.077 39.385-90.256 55.795 1.641 3.282 3.282 6.564 3.282 9.846v0zM836.923 841.846c16.41-14.769 32.821-29.538 47.59-47.59 4.923-6.564 9.846-13.128 13.128-21.333-21.333 22.974-45.949 45.949-70.564 65.641-3.282 6.564-6.564 13.128-11.487 18.051l21.333-14.769zM973.128 658.051c9.846-22.974 18.051-44.308 24.615-68.923v0c3.282-11.487 3.282-11.487 4.923-22.974-6.564 21.333-14.769 42.667-26.256 62.359-4.923 19.692-9.846 37.744-18.051 55.795 8.205-13.128 8.205-13.128 14.769-26.256zM1001.026 579.282c3.282-9.846 4.923-19.692 6.564-29.538-1.641 4.923-1.641 4.923-3.282 11.487-1.641 8.205-1.641 8.205-3.282 18.051v0zM1012.513 523.487c4.923-31.179 6.564-62.359 4.923-93.538 0 13.128-1.641 26.256-4.923 37.744 0 26.256-1.641 50.872-4.923 77.128 1.641-8.205 3.282-14.769 4.923-21.333v0zM1015.795 405.333v0c-3.282-27.897-8.205-54.154-13.128-80.41 0 9.846-3.282 18.051-6.564 26.256 8.205 29.538 13.128 60.718 16.41 91.897 1.641-11.487 3.282-24.615 3.282-37.744v0zM1012.513 385.641c-3.282-21.333-6.564-44.308-13.128-65.641 0 1.641 0 3.282 0 3.282 6.564 21.333 11.487 42.667 13.128 62.359v0zM846.769 67.282l-14.769-11.487c-9.846-8.205-21.333-14.769-32.821-19.692 22.974 19.692 44.308 41.026 64 64 9.846 3.282 18.051 6.564 26.256 13.128-19.692-24.615-19.692-24.615-42.667-45.949v0zM705.641-24.615c-1.641 0-1.641 0-3.282-1.641 0 0 1.641 1.641 3.282 1.641 0 0 0 0 0 0zM1.641 318.359c0 1.641-1.641 4.923-1.641 6.564v0c0-1.641 0-1.641 1.641-3.282 0-1.641 0-1.641 0-3.282v0zM538.256-47.59c29.538-1.641 59.077 0 88.615 3.282-16.41-6.564-34.462-13.128-52.513-16.41-27.897-3.282-54.154-3.282-82.051-1.641 16.41 3.282 31.179 8.205 45.949 14.769v0zM421.744-27.897c36.103-8.205 72.205-14.769 108.308-19.692-14.769-6.564-29.538-11.487-44.308-16.41-32.821 3.282-64 8.205-95.179 16.41 11.487 6.564 21.333 13.128 31.179 19.692v0zM715.487 4.923c21.333 3.282 42.667 8.205 62.359 14.769-19.692-14.769-41.026-27.897-62.359-39.385-21.333-6.564-42.667-13.128-65.641-16.41 22.974 11.487 44.308 26.256 65.641 41.026v0zM615.385 4.923c31.179-3.282 62.359-3.282 93.538-1.641-21.333-14.769-42.667-29.538-65.641-41.026-29.538-3.282-60.718-3.282-90.256-1.641 21.333 13.128 42.667 27.897 62.359 44.308zM482.462 32.821c41.026-11.487 82.051-19.692 123.077-26.256-19.692-16.41-39.385-32.821-62.359-45.949-37.744 4.923-75.487 11.487-111.59 19.692 24.615 22.974 24.615 22.974 50.872 52.513v0zM193.641 173.949c41.026-27.897 83.692-52.513 128-75.487-16.41-34.462-16.41-34.462-29.538-62.359-37.744 19.692-75.487 42.667-109.949 67.282 1.641 22.974 4.923 45.949 11.487 70.564v0zM805.744 93.538c18.051 0 36.103 0 54.154 4.923-19.692-22.974-41.026-44.308-64-64-19.692-6.564-41.026-9.846-60.718-13.128 24.615 21.333 49.231 45.949 70.564 72.205zM708.923 108.308c29.538-6.564 60.718-11.487 91.897-13.128-22.974-26.256-45.949-50.872-72.205-73.846-31.179-1.641-62.359 0-93.538 3.282 26.256 24.615 50.872 54.154 73.846 83.692v0zM398.769 223.179c78.769-36.103 78.769-36.103 155.897-67.282-34.462-54.154-34.462-54.154-67.282-98.462-49.231 16.41-96.821 36.103-142.769 57.436 24.615 49.231 24.615 49.231 54.154 108.308v0zM113.231 400.41c50.872-39.385 50.872-39.385 113.231-80.41-19.692-60.718-19.692-60.718-36.103-114.872-34.462 26.256-68.923 52.513-100.103 82.051 4.923 39.385 13.128 75.487 22.974 113.231v0zM937.026 205.128c4.923-1.641 9.846-3.282 16.41-3.282-14.769-24.615-29.538-49.231-47.59-72.205-6.564-4.923-16.41-8.205-24.615-9.846 19.692 26.256 37.744 55.795 55.795 85.333v0zM892.718 219.897c24.615-9.846 24.615-9.846 42.667-14.769-16.41-29.538-36.103-59.077-57.436-86.974-16.41-1.641-34.462-1.641-50.872 0 22.974 32.821 44.308 67.282 65.641 101.744v0zM804.103 257.641c45.949-21.333 45.949-21.333 82.051-34.462-19.692-36.103-42.667-70.564-67.282-103.385-41.026 6.564-41.026 6.564-90.256 18.051 39.385 55.795 39.385 55.795 75.487 119.795v0zM664.615 321.641l129.641-59.077c-36.103-64-36.103-64-73.846-121.436-62.359 19.692-62.359 19.692-132.923 44.308 39.385 64 39.385 64 77.128 136.205zM315.077 493.949c78.769-39.385 78.769-39.385 160.821-82.051-37.744-75.487-37.744-75.487-72.205-146.051-78.769 41.026-78.769 41.026-152.615 83.692 29.538 70.564 29.538 70.564 64 144.41v0zM987.897 324.923c4.923-6.564 6.564-14.769 8.205-21.333-8.205-27.897-19.692-54.154-31.179-80.41-4.923 1.641-4.923 1.641-14.769 6.564 13.128 31.179 26.256 64 37.744 95.179v0zM953.436 365.949c11.487-11.487 22.974-24.615 32.821-37.744-11.487-32.821-22.974-65.641-37.744-96.821-16.41 8.205-16.41 8.205-39.385 19.692 16.41 37.744 31.179 75.487 44.308 114.872v0zM877.949 426.667c24.615-18.051 49.231-36.103 70.564-57.436-13.128-39.385-29.538-78.769-45.949-116.513-34.462 18.051-34.462 18.051-80.41 39.385 31.179 68.923 31.179 68.923 55.795 134.564v0zM751.59 508.718c64-39.385 64-39.385 118.154-75.487-26.256-67.282-26.256-67.282-57.436-134.564-59.077 29.538-59.077 29.538-128 64 36.103 73.846 36.103 73.846 67.282 146.051v0zM585.846 598.974c80.41-41.026 80.41-41.026 154.256-83.692-31.179-72.205-31.179-72.205-67.282-147.692-78.769 39.385-78.769 39.385-162.462 80.41 39.385 77.128 39.385 77.128 75.487 150.974zM265.846 731.897c62.359-21.333 62.359-21.333 132.923-49.231-39.385-68.923-39.385-68.923-77.128-141.128-68.923 34.462-68.923 34.462-128 64 34.462 65.641 34.462 65.641 72.205 126.359v0zM111.59 761.436c16.41 0 32.821 0 49.231-3.282-22.974-34.462-44.308-70.564-64-106.667-24.615 11.487-24.615 11.487-41.026 19.692 16.41 31.179 34.462 60.718 55.795 90.256v0zM981.333 502.154c11.487-16.41 19.692-36.103 27.897-54.154-3.282-31.179-8.205-62.359-16.41-93.538-8.205 14.769-18.051 29.538-31.179 41.026 9.846 36.103 16.41 70.564 19.692 106.667v0zM917.333 577.641c21.333-21.333 42.667-45.949 60.718-70.564-4.923-36.103-9.846-72.205-19.692-106.667-21.333 21.333-44.308 42.667-68.923 60.718 11.487 39.385 21.333 78.769 27.897 116.513v0zM809.026 667.897c36.103-24.615 70.564-52.513 101.744-82.051-6.564-39.385-16.41-78.769-27.897-118.154-52.513 37.744-52.513 37.744-114.872 78.769 22.974 64 22.974 64 41.026 121.436v0zM502.154 820.513c49.231-18.051 98.462-37.744 146.051-60.718-26.256-54.154-26.256-54.154-59.077-116.513-78.769 37.744-78.769 37.744-157.538 70.564 37.744 57.436 37.744 57.436 70.564 106.667v0zM981.333 610.462c9.846-19.692 19.692-41.026 26.256-62.359 3.282-24.615 4.923-50.872 3.282-77.128-6.564 19.692-16.41 39.385-26.256 57.436 0 27.897-1.641 54.154-3.282 82.051v0zM923.897 689.231c19.692-22.974 37.744-47.59 54.154-73.846 3.282-27.897 3.282-55.795 3.282-82.051-18.051 26.256-37.744 50.872-59.077 72.205 1.641 29.538 1.641 55.795 1.641 83.692v0zM830.359 774.564c31.179-24.615 59.077-49.231 86.974-77.128 1.641-27.897 0-55.795-3.282-83.692-31.179 29.538-64 55.795-98.462 82.051 9.846 42.667 9.846 42.667 14.769 78.769v0zM707.282 850.051c39.385-21.333 77.128-44.308 113.231-70.564-6.564-34.462-6.564-34.462-16.41-78.769-64 39.385-64 39.385-131.282 77.128 19.692 42.667 19.692 42.667 34.462 72.205v0zM572.718 904.205c42.667-13.128 83.692-29.538 124.718-49.231-16.41-31.179-16.41-31.179-34.462-70.564-45.949 21.333-93.538 41.026-142.769 57.436 27.897 36.103 27.897 36.103 52.513 62.359v0zM909.128 758.154c18.051-21.333 34.462-44.308 47.59-67.282 6.564-18.051 13.128-36.103 16.41-55.795-16.41 26.256-32.821 50.872-52.513 73.846-1.641 16.41-6.564 32.821-11.487 49.231v0zM830.359 832c26.256-21.333 50.872-44.308 73.846-68.923 4.923-16.41 9.846-32.821 13.128-49.231-26.256 27.897-54.154 52.513-83.692 75.487-1.641 14.769-1.641 29.538-3.282 42.667v0zM728.615 896c32.821-18.051 64-37.744 93.538-57.436 1.641-13.128 1.641-27.897 0-41.026-34.462 24.615-72.205 47.59-109.949 67.282 9.846 18.051 9.846 18.051 16.41 31.179v0zM508.718 960c32.821-3.282 65.641-9.846 98.462-18.051-11.487-6.564-22.974-14.769-34.462-22.974-36.103 9.846-73.846 16.41-111.59 21.333 16.41 8.205 31.179 14.769 47.59 19.692v0z" />
<glyph unicode="&#xe907;" glyph-name="profesor" horiz-adv-x="1195" d="M1130.268 808.123h-214.193l-6.924 43.952c-2.107 11.44-13.095 19.116-24.535 17.009-11.139-1.957-18.665-12.343-17.159-23.632l5.87-37.329h-158.198l5.87 37.48c2.107 11.44-5.569 22.428-17.009 24.535s-22.428-5.569-24.535-17.009c0-0.301-0.151-0.602-0.151-0.903l-6.924-43.952h-215.999v-24.385h673.886c13.246 0 23.933-10.687 23.933-23.933v-420.558c0-13.246-10.687-23.933-23.933-23.933h-41.394v40.641h-105.516v-40.641h-526.977c-13.246 0-23.933 10.687-23.933 23.933v153.984h-24.234v-153.984c0-26.642 21.675-48.167 48.167-48.167h120.869c0-0.151-0.151-0.301-0.151-0.452l-10.085-80.83h-41.243c-6.773 0-12.192-5.419-12.192-12.192s5.419-12.192 12.192-12.192h38.082l-11.44-91.969c-0.903-6.623 3.914-12.794 10.537-13.547 0.452 0 1.054-0.151 1.505-0.151 6.021 0 11.289 4.516 12.042 10.687l11.891 94.979h413.032l11.891-94.979c0.753-6.171 6.021-10.687 12.042-10.687 0.452 0 1.054 0 1.505 0.151 6.623 0.903 11.44 6.924 10.537 13.547l-11.44 91.969h34.469c6.773 0 12.192 5.419 12.192 12.192s-5.419 12.192-12.192 12.192h-37.63l-10.085 80.83c0 0.151 0 0.301-0.151 0.452h117.407c26.642 0 48.167 21.675 48.167 48.167v420.558c0.301 26.642-21.374 48.167-47.866 48.167zM988.778 287.77l9.784-77.82h-407.011l9.784 77.82c0.151 1.204 0 2.258-0.151 3.462h387.744c-0.151-1.054-0.301-2.258-0.151-3.462zM258.747 816.101c0-52.871-42.861-95.732-95.732-95.732s-95.732 42.861-95.732 95.732c0 52.871 42.861 95.732 95.732 95.732s95.732-42.861 95.732-95.732zM456.834 692.974h-259.65l-34.168-54.639-34.168 54.639h-58.101c-24.535 0-44.554-19.718-44.554-44.253 0 0 0 0 0-0.151v-239.33c0-23.331 18.063-42.447 40.942-44.253v-259.951c0-24.385 19.718-44.103 44.103-44.103v0c24.385 0 44.103 19.718 44.103 44.103v259.801h14.751v-259.801c0-24.385 19.718-44.103 44.103-44.103v0c24.385 0 44.103 19.718 44.103 44.103v382.928c0 0 0 0 0 0v109.279h198.087c26.492 0 47.866 21.374 47.866 47.866s-21.073 47.866-47.414 47.866z" />
<glyph unicode="&#xe908;" glyph-name="videoteca" horiz-adv-x="1195" d="M1135.988 705.167l-235.868-62.918v104.161c0 45.157-37.329 82.486-82.486 82.486h-727.321c-45.157 0-82.486-37.329-82.486-82.486v0-517.042c0-45.157 37.329-82.486 82.486-82.486h729.278c45.157 0 82.486 37.329 82.486 82.486v96.334l233.911-53.134c29.502 0 51.177 23.632 51.177 51.177v328.288c0 29.502-23.632 53.134-51.177 53.134v0zM640.771 469.299l-267.477-161.209c-19.718-13.697-37.329-5.87-37.329 19.718v324.224c0 23.632 17.762 31.459 37.329 19.718l265.37-153.382c13.697-5.87 19.718-23.632 13.697-37.329-3.763-5.87-7.677-9.784-11.59-11.741v0z" />
<glyph unicode="&#xe909;" glyph-name="biblioteca" horiz-adv-x="1195" d="M0 72.062c0-75.022 61.040-136.062 136.062-136.062h983.708v60.439h-62.995v151.097h62.995v26.461h75.473v60.439h-45.404v151.247h45.404v60.439h-49.163v51.719l-74.571 139.821h78.48v81.337l-197.253 241.003h-696.097l-179.362-282.799c-30.67-24.957-50.817-62.544-50.817-105.091 0-74.571 60.288-135.16 134.709-135.912-50.065-20.146-85.546-68.858-85.546-126.139 0-41.495 19.094-78.179 48.411-103.287-69.309-6.164-124.035-63.897-124.035-134.709zM86.899 572.11c0 28.265 15.636 52.47 38.639 65.55h901.018v-141.174h-864.033c-41.646 0-75.624 33.828-75.624 75.624zM211.535 385.682h877.865v-151.097h-877.714c-41.646 0-75.624 33.828-75.624 75.624 0 41.495 33.828 75.473 75.473 75.473zM136.062 147.535h860.274v-151.097h-860.274c-41.646 0-75.624 33.828-75.624 75.624 0 41.646 33.978 75.473 75.624 75.473z" />
<glyph unicode="&#xe90a;" glyph-name="apuntes" horiz-adv-x="816" d="M702.556 653.955v169.383c0 21.173-17.323 36.571-36.571 36.571h-61.594v63.519c0 21.173-17.323 36.571-36.571 36.571h-531.248c-19.248 0-36.571-17.323-36.571-36.571v-752.602c0-21.173 17.323-36.571 36.571-36.571h61.594v-61.594c0-9.624 3.85-19.248 11.549-26.947s17.323-11.549 26.947-11.549h80.842v38.496l-78.917-1.925-1.925 750.677 527.398 1.925v-132.812l-53.895 53.895v-175.158c0-1.925 1.925-1.925 1.925-1.925h180.932v-1.925l-90.466 88.541zM98.165 823.338v-652.511h-59.669l-1.925 750.677 527.398 1.925v-61.594h-427.308c-21.173 0-38.496-17.323-38.496-38.496zM610.165 528.842c-11.549 0-21.173 3.85-28.872 11.549s-11.549 17.323-11.549 28.872v175.158h-325.293c-9.624 0-17.323-7.699-17.323-17.323v-752.602c0-9.624 7.699-17.323 17.323-17.323h529.323c0 0 0 0 0 0 9.624 0 17.323 7.699 17.323 17.323v554.346h-180.932c0 0 0 0 0 0z" />
<glyph unicode="&#xe90b;" glyph-name="menu-inicio" horiz-adv-x="1031" d="M856.246 463.727c-17.474 0-34.949-13.98-34.949-31.454v-415.891h-192.218v164.259c0 17.474-13.98 34.949-34.949 38.444h-150.28c-20.969 0-38.444-17.474-38.444-38.444v-164.259h-192.218v398.416c0 20.969-13.98 34.949-34.949 38.444-17.474 0-34.949-13.98-34.949-34.949v-443.85c0-24.464 17.474-34.949 34.949-38.444h265.611c10.485 0 20.969 3.495 24.464 13.98 6.99 6.99 10.485 17.474 6.99 27.959v167.754h76.887v-167.754c0-20.969 13.98-34.949 41.939-38.444h262.116c20.969 0 34.949 17.474 34.949 38.444v454.334c0 6.99 0 13.98-3.495 20.969-6.99 6.99-17.474 10.485-31.454 10.485zM1024 439.263v0c-202.703 216.683-314.539 335.509-478.799 506.758-6.99 6.99-17.474 13.98-27.959 13.98-17.474 0-24.464-6.99-27.959-13.98l-475.304-503.263c-6.99-6.99-6.99-13.98-10.485-17.474 0-3.495 0-3.495-3.495-6.99v-3.495c0-10.485 3.495-17.474 10.485-24.464 10.485-13.98 27.959-17.474 45.433-6.99 0 0 0 0 3.495 0 0 0 3.495 3.495 6.99 6.99l454.334 475.304 450.84-482.294c10.485-10.485 20.969-10.485 27.959-10.485 10.485 0 17.474 3.495 24.464 6.99h3.495v3.495c6.99 13.98 6.99 38.444-3.495 55.918z" />
<glyph unicode="&#xe90c;" glyph-name="menu-cerrar-sesion" horiz-adv-x="905" d="M388.215 960h126.643v-434.205h-126.643v434.205zM593.413 782.7v-108.551c123.025-50.657 206.247-170.064 206.247-303.943-3.618-188.155-159.208-336.509-347.364-336.509-188.155-3.618-343.746 148.353-347.364 336.509 0 133.88 83.223 253.286 206.247 303.943v108.551c-184.537-54.276-307.562-220.721-311.18-412.495 7.237-246.049 206.247-437.823 452.297-434.205 246.049-3.618 445.060 191.774 452.297 434.205-3.618 191.774-126.643 358.219-311.18 412.495z" />
<glyph unicode="&#xe90d;" glyph-name="menu-ajustes" d="M891.871 398.452c3.303 16.516 3.303 33.032 3.303 49.548s0 33.032-3.303 49.548l109.006 85.884c9.91 6.606 13.213 23.123 6.606 33.032l-102.4 178.374c-6.606 9.91-19.819 16.516-29.729 9.91l-128.826-49.548c-26.426 19.819-56.155 36.335-85.884 49.548l-19.819 135.432c-3.303 9.91-13.213 19.819-26.426 19.819h-204.8c-13.213 0-23.123-9.91-23.123-23.123l-19.819-135.432c-29.729-13.213-59.458-29.729-85.884-49.548l-128.826 52.852c-13.213 3.303-26.426 0-29.729-9.91l-102.4-178.374c-6.606-9.91-3.303-26.426 6.606-33.032l105.703-85.884c-6.606-33.032-6.606-66.065 0-99.097l-109.006-85.884c-9.91-6.606-13.213-23.123-6.606-33.032l102.4-178.374c6.606-9.91 19.819-16.516 29.729-9.91l128.826 49.548c26.426-19.819 56.155-36.335 85.884-49.548l19.819-135.432c3.303-13.213 13.213-23.123 26.426-23.123h204.8c13.213 0 23.123 9.91 23.123 23.123l19.819 135.432c29.729 13.213 59.458 29.729 85.884 49.548l128.826-49.548c13.213-3.303 26.426 0 29.729 9.91l102.4 178.374c6.606 9.91 3.303 26.426-6.606 33.032l-105.703 85.884zM512 256.413c-105.703 0-191.587 85.884-191.587 191.587s85.884 191.587 191.587 191.587 191.587-85.884 191.587-191.587v0c0-105.703-85.884-191.587-191.587-191.587z" />
<glyph unicode="&#xe90e;" glyph-name="menu-ausencias" d="M729.131 935.874l-214.45-214.45-214.45 214.45c-34.848 34.848-88.461 34.848-123.309 0l-152.796-150.115c-34.848-34.848-34.848-88.461 0-123.309l214.45-214.45-214.45-214.45c-34.848-34.848-34.848-88.461 0-123.309l147.435-147.435c34.848-34.848 88.461-34.848 123.309 0l214.45 214.45 214.45-214.45c34.848-34.848 88.461-34.848 123.309 0l147.435 147.435c34.848 34.848 34.848 88.461 0 123.309l-214.45 214.45 214.45 214.45c34.848 34.848 34.848 88.461 0 123.309l-147.435 147.435c-29.487 34.848-85.78 34.848-117.948 2.681z" />
<glyph unicode="&#xe90f;" glyph-name="menu-calendarios" horiz-adv-x="949" d="M433.231 463.754h110.277v-110.277h-110.277v110.277zM586.831 463.754h110.277v-110.277h-110.277v110.277zM740.431 463.754h110.277v-110.277h-110.277v110.277zM433.231 310.154h110.277v-110.277h-110.277v110.277zM586.831 310.154h110.277v-110.277h-110.277v110.277zM129.969 310.154h110.277v-110.277h-110.277v110.277zM283.569 310.154h110.277v-110.277h-110.277v110.277zM740.431 310.154h110.277v-110.277h-110.277v110.277zM433.231 156.554h110.277v-110.277h-110.277v110.277zM586.831 156.554h110.277v-110.277h-110.277v110.277zM129.969 156.554h110.277v-110.277h-110.277v110.277zM283.569 156.554h110.277v-110.277h-110.277v110.277zM870.4 743.385h-35.446v133.908c0 47.262-35.446 82.708-82.708 82.708s-82.708-35.446-82.708-82.708v-133.908h-346.585v133.908c0 47.262-35.446 82.708-82.708 82.708s-82.708-35.446-82.708-82.708v-133.908h-78.769c-43.323 0-78.769-35.446-78.769-78.769v-649.846c0-43.323 35.446-78.769 78.769-78.769h791.631c43.323 0 78.769 35.446 78.769 78.769v649.846c0 43.323-35.446 78.769-78.769 78.769zM712.862 889.108c0 23.631 19.692 43.323 43.323 43.323s43.323-19.692 43.323-43.323v-141.785c0-11.815-3.938-23.631-11.815-31.508s-19.692-11.815-31.508-11.815c-11.815 0-23.631 3.938-31.508 11.815s-11.815 19.692-11.815 31.508v141.785zM200.862 889.108c0 23.631 19.692 43.323 43.323 43.323s43.323-19.692 43.323-43.323v-141.785c0-11.815-3.938-23.631-11.815-31.508s-19.692-11.815-31.508-11.815c-7.877 0-19.692 3.938-31.508 11.815-7.877 7.877-11.815 19.692-11.815 31.508v141.785zM909.785 14.769c0-23.631-15.754-39.385-39.385-39.385h-791.631c-23.631 0-39.385 15.754-39.385 39.385v519.877h870.4v-519.877z" />
<glyph unicode="&#xe910;" glyph-name="menu-colaborativo" horiz-adv-x="1039" d="M0 858.334v-818.338l604.757-104.811v1024.815zM439.622 575.694l-104.228-5.008v-302.786h-68.593v296.148h-101.666v68.127l274.487 20.38zM1039.256 634.155c0-51.582-41.816-93.398-93.398-93.398s-93.398 41.816-93.398 93.398c0 51.582 41.816 93.398 93.398 93.398s93.398-41.816 93.398-93.398zM701.3 788.46c-21.654-0.022-41.574-7.427-57.382-19.834l0.202 0.153v-147.434c15.519-11.987 35.248-19.214 56.665-19.214 51.454 0 93.165 41.711 93.165 93.165 0 51.273-41.418 92.871-92.622 93.163h-0.028zM852.46 482.529h186.33v-176.781c0-54.026-43.797-97.823-97.823-97.823v0h-88.507v274.604zM642.839 540.757h176.548v-315.713c0-55.055-44.631-99.687-99.687-99.687v0h-76.861v415.4z" />
<glyph unicode="&#xe911;" glyph-name="menu-correo" horiz-adv-x="1014" d="M595.966 960h2.030c0-1.656 0-3.313 0-4.969v-1011.818c0-1.496 0-2.992 0-4.488s-0.641-2.778-2.565-2.725c-1.022-0.040-2.222-0.063-3.427-0.063-3.706 0-7.361 0.217-10.954 0.639l0.436-0.042c-27.25 5.343-54.392 11.274-81.589 16.991l-457.741 95.801c-13.999 2.939-28.051 5.664-42.050 8.495v787.195c1.336-0.748 2.618 0 3.9 0l546.329 105.846zM438.132 449.469c0 34.783-4.542 68.819-20.037 100.503-20.624 42.21-51.614 71.223-100.717 75.551-4.196 0.523-9.052 0.822-13.977 0.822-26.355 0-50.713-8.545-70.457-23.015l0.334 0.234c-27.837-20.624-44.882-48.836-54.98-81.375-7.298-23.405-11.501-50.314-11.501-78.206 0-15.782 1.346-31.251 3.929-46.296l-0.229 1.611c4.759-33.186 18.092-62.613 37.662-86.783l-0.26 0.332c22.451-27.257 56.205-44.502 93.987-44.502 18.721 0 36.453 4.234 52.291 11.797l-0.733-0.315c29.975 13.839 49.744 37.936 64.117 66.949 15.228 32.272 20.090 67.056 20.571 102.694zM635.826 465.285c2.030 0 2.992-1.122 4.168-1.924q28.853-19.769 57.652-39.646c3.202-2.587 7.322-4.154 11.808-4.154s8.606 1.566 11.844 4.182l-0.036-0.028q144.263 96.175 288.953 192.351l3.687 2.244v-377.862c0-0.032 0-0.070 0-0.108 0-19.156-11.695-35.581-28.335-42.524l-0.304-0.113c-7.285-2.949-15.734-4.661-24.583-4.661-0.449 0-0.897 0.004-1.345 0.013l0.067-0.001q-159.277 0-318.501 0c-4.061 0-5.343 0.908-5.343 5.343q0 131.279 0 262.505c0.267 1.496 0.267 2.939 0.267 4.381zM810.224 742.163c55.301 0 110.602-0.427 165.902 0.267 17.098 0 33.501-15.495 37.402-29.494 0.39-2.204 0.613-4.741 0.613-7.33 0-1.615-0.087-3.21-0.256-4.78l0.017 0.195c0-2.298-2.191-2.778-3.633-3.687l-113.433-76.566q-90.031-60.697-180.062-121.501c-1.943-1.539-4.43-2.468-7.133-2.468-2.516 0-4.843 0.805-6.74 2.171l0.034-0.023q-31.684 20.143-63.422 39.913c-2.357 1.262-3.933 3.708-3.933 6.522 0 0.244 0.012 0.484 0.035 0.722l-0.002-0.030q0 95.214 0 190.374c0 4.435 0.962 5.877 5.664 5.877 56.316-0.214 112.632-0.16 168.948-0.16zM372.252 445.943c0.090-2.016 0.141-4.381 0.141-6.758 0-22.353-4.53-43.647-12.722-63.016l0.399 1.062c-6.346-16.165-18.279-28.982-33.369-36.318l-0.399-0.175c-6.923-3.233-15.030-5.12-23.579-5.12-17.462 0-33.084 7.872-43.513 20.262l-0.071 0.086c-12.338 14.857-20.775 33.366-23.503 53.684l-0.060 0.548c-2.11 10.941-3.317 23.523-3.317 36.388 0 20.832 3.166 40.925 9.042 59.824l-0.382-1.425c5.005 17.137 14.72 31.59 27.643 42.31l0.141 0.114c9.486 7.325 21.545 11.74 34.634 11.74 16.878 0 32.042-7.341 42.471-19.005l0.048-0.055c11.922-14.531 20.139-32.531 22.962-52.272l0.067-0.571c2.155-11.508 3.387-24.747 3.387-38.275 0-1.064-0.008-2.127-0.023-3.188l0.002 0.16z" />
<glyph unicode="&#xe912;" glyph-name="menu-gestor-servicios" horiz-adv-x="1160" d="M1020 716.040v188c0 32-28 56-60 56-8 0-20-4-28-8-172-96-360-152-556-168 0 0-180 0-180 0-44 0-80-32-88-76h-36c-40 0-72-32-72-72v-160c0-40 32-72 72-72h36c4-32 24-56 52-68l132-360c8-24 28-36 52-36h132c32 0 56 24 56 56 0 8 0 12-4 20l-112 304c180-20 356-76 516-164 16-12 40-8 56 0 16 12 28 28 28 48v188c88 12 152 92 140 184-4 72-64 132-136 140v0zM108 460.040h-36c-8 0-16 8-16 16v0 160c0 8 8 16 16 16 0 0 0 0 0 0h36v-192zM184 384.040c-12 4-20 16-20 28v284c0 16 16 32 32 32h152v-348c0 0-152 0-156 0 0 0-4 0-8 4zM476-7.96c0 0 0 0 0 0s0 0 0 0h-132c0 0 0 0 0 0l-120 332h132l120-332zM964 208.040c0 0 0-4 0 0-4-4-4-4 0 0-172 96-364 152-560 172v352c196 16 384 76 556 172 0 0 0 0 0 0s0 0 0 0l4-696zM1020 452.040v208c56-12 96-68 84-124-12-44-44-76-84-84z" />
<glyph unicode="&#xe913;" glyph-name="menu-herramientas" horiz-adv-x="774" d="M371.279 956.481v-221.691h-214.653v221.691c-91.491-35.189-151.313-123.162-154.832-221.691 3.519-98.529 63.34-186.502 151.313-221.691v-503.203c0-7.038 0-14.076 3.519-17.595 10.557-35.189 42.227-56.302 77.416-56.302h59.821c35.189 0 66.859 21.113 77.416 56.302 3.519 7.038 3.519 14.076 3.519 17.595v503.203c91.491 35.189 151.313 123.162 151.313 221.691-3.519 98.529-63.34 186.502-154.832 221.691zM212.929 495.505h98.529v-443.381c0-10.557-10.557-21.113-21.113-21.113h-52.784c-10.557 0-21.113 10.557-21.113 21.113l-3.519 443.381zM677.424 425.127h24.632v362.447l10.557 28.151v109.086l-38.708 38.708-35.189-35.189v-109.086l7.038-24.632v-362.447h31.67zM702.056 502.543h-126.68v-95.010h24.632v-401.155c3.519-38.708 35.189-66.859 73.897-66.859h3.519c38.708 0 70.378 28.151 70.378 66.859v397.636h24.632v98.529h-70.378zM656.31 31.010h-24.632v369.485h24.632v-369.485zM716.131 31.010h-24.632v369.485h24.632v-369.485z" />
<glyph unicode="&#xe914;" glyph-name="documentos" horiz-adv-x="1195" d="M1055.911 557.354c28.148 21.224 47.565 54.639 47.565 93.474 0 65.326-52.833 118.16-118.16 118.16s-118.16-52.833-118.16-118.16c0-38.835 17.611-72.25 47.565-93.474-65.326-22.879-114.698-77.669-130.502-144.651-29.954 22.879-66.982 40.49-105.817 51.177 51.177 26.492 86.4 81.131 86.4 142.845 0 88.206-72.25 160.456-160.456 160.456s-160.456-72.25-160.456-160.456c0-61.714 35.222-116.353 86.4-142.845-42.297-10.537-79.325-29.954-112.891-56.446-15.805 68.788-66.982 125.234-132.309 149.92 28.148 21.224 47.565 54.639 47.565 93.474 0 65.326-52.833 118.16-118.16 118.16s-118.16-52.833-118.16-118.16c0-38.835 17.611-72.25 47.565-93.474-80.981-28.148-139.082-105.817-139.082-195.678h52.833c0 86.4 70.595 155.188 155.188 155.188s155.188-70.595 155.188-155.188h1.806c-40.49-51.177-63.52-114.698-63.52-183.336h52.833c0 133.964 109.279 243.394 243.394 243.394s243.394-109.58 243.394-243.544h52.833c0 72.25-26.492 139.383-70.595 190.41 3.462 82.938 72.25 148.113 155.188 148.113 86.4 0 155.188-70.595 155.188-155.188h52.833c1.957 90.012-56.145 167.681-135.47 195.829zM212.838 716.004c35.222 0 65.326-28.148 65.326-65.326s-28.148-65.326-65.326-65.326-63.52 29.954-63.52 65.326 28.298 65.326 63.52 65.326zM495.066 606.725c0 59.908 49.371 107.623 107.623 107.623 59.908 0 107.623-49.371 107.623-107.623s-49.371-107.623-107.623-107.623c-58.252 0-107.623 47.715-107.623 107.623zM985.316 716.004c35.222 0 65.326-28.148 65.326-65.326s-28.148-65.326-65.326-65.326c-37.028 0-65.326 28.148-65.326 65.326s30.104 65.326 65.326 65.326z" />
</font>
</defs>
</svg>
