<svg xmlns="http://www.w3.org/2000/svg" width="42.429" height="53.172" viewBox="0 0 42.429 53.172"><g transform="translate(-736 -795)" opacity="0.5"><path d="M-58.319,176.648V168.8a.947.947,0,0,0-.947-.946H-86.73a.946.946,0,0,0-.946.946V207.85a.946.946,0,0,0,.946.947h4.166" transform="translate(829.789 633.262)" fill="none" stroke="#263746" stroke-miterlimit="10" stroke-width="2"/><path d="M-68.643,162.493v-4.019a.947.947,0,0,0-.946-.947H-97.054a.947.947,0,0,0-.946.947v39.052a.947.947,0,0,0,.946.947h4.167" transform="translate(835 638.473)" fill="none" stroke="#263746" stroke-miterlimit="10" stroke-width="2"/><g transform="translate(747.794 804.992)"><path d="M-47.8,219.12H-75.259a.947.947,0,0,1-.947-.947V179.121a.947.947,0,0,1,.947-.947h18.9l9.507,9.264v30.735A.947.947,0,0,1-47.8,219.12Z" transform="translate(76.206 -176.94)" fill="#f4f7fc" stroke="#263746" stroke-miterlimit="10" stroke-width="2"/><path d="M-25.388,189.589h-10.7a1.114,1.114,0,0,1-1.115-1.114v-10.3" transform="translate(56.022 -178.174)" fill="none" stroke="#263746" stroke-miterlimit="10" stroke-width="2"/></g></g></svg>