<svg xmlns="http://www.w3.org/2000/svg" width="22" height="29.102" viewBox="0 0 22 29.102">
  <g id="Grupo_1251" data-name="Grupo 1251" transform="translate(118.451 -34)" opacity="0.75">
    <path id="Trazado_673" data-name="Trazado 673" d="M-105.932,34.357v6.318h-6.131V34.357a6.929,6.929,0,0,0-4.388,6.318,6.923,6.923,0,0,0,4.327,6.291v14.29a2,2,0,0,0,.077.535,2.242,2.242,0,0,0,2.188,1.573h1.722a2.242,2.242,0,0,0,2.188-1.573,1.953,1.953,0,0,0,.076-.535V46.966a6.923,6.923,0,0,0,4.327-6.291A6.929,6.929,0,0,0-105.932,34.357Zm-4.42,13.112h2.781V60.022a.628.628,0,0,1-.649.6H-109.7a.627.627,0,0,1-.648-.6Z" transform="translate(-2 -0.262)" fill="#fff"/>
    <path id="Trazado_674" data-name="Trazado 674" d="M-47.988,49.2h.735V38.911l.262-.764V35.009l-1-.958L-48.042,34l-1.018,1.009v3.137l.231.739V49.2Z" transform="translate(-51.253)" fill="#fff"/>
    <path id="Trazado_675" data-name="Trazado 675" d="M-52.274,91.015h-3.633v2.731h.721v11.438a2.01,2.01,0,0,0,2.113,1.887l.063-.006a2,2,0,0,0,2.049-1.881V93.746h.741V91.015Zm-1.27,13.393h-.735V93.866h.735Zm1.668,0h-.735V93.866h.735Z" transform="translate(-46.232 -43.97)" fill="#fff"/>
  </g>
</svg>
