<svg xmlns="http://www.w3.org/2000/svg" width="26.847" height="26.666" viewBox="0 0 26.847 26.666">
  <g id="Grupo_1369" data-name="Grupo 1369" transform="translate(-482.473 -847.516)">
    <path id="Trazado_1024" data-name="Trazado 1024" d="M490.427,931.171a3.491,3.491,0,0,1,0-6.983h2.182" transform="translate(-2.821 -57.739)" fill="none" stroke="#32b4af" stroke-miterlimit="10" stroke-width="1.5"/>
    <path id="Trazado_1025" data-name="Trazado 1025" d="M512.271,848.265h-14.4a3.491,3.491,0,0,1,0,6.983h14.4a3.491,3.491,0,0,0,0-6.983Z" transform="translate(-11.135)" fill="none" stroke="#32b4af" stroke-miterlimit="10" stroke-width="1.5"/>
    <path id="Trazado_1026" data-name="Trazado 1026" d="M500.917,855.248l6.764,11.638a5.638,5.638,0,0,1,.873,3.055,3.491,3.491,0,0,1-3.491,3.491H487.607a3.493,3.493,0,0,0,3.131-5.038c-.57-1.152-6.186-12.419-7.059-14.164a5.447,5.447,0,0,1-.436-2.473,3.611,3.611,0,0,1,3.491-3.491" fill="none" stroke="#32b4af" stroke-miterlimit="10" stroke-width="1.5"/>
    <line id="Línea_455" data-name="Línea 455" x2="10.06" transform="translate(490.351 859.389)" fill="none" stroke="#32b4af" stroke-linecap="round" stroke-miterlimit="10" stroke-width="1"/>
    <line id="Línea_456" data-name="Línea 456" x2="10.06" transform="translate(491.807 862.316)" fill="none" stroke="#32b4af" stroke-linecap="round" stroke-miterlimit="10" stroke-width="1"/>
    <line id="Línea_457" data-name="Línea 457" x2="10.06" transform="translate(493.024 865.21)" fill="none" stroke="#32b4af" stroke-linecap="round" stroke-miterlimit="10" stroke-width="1"/>
    <line id="Línea_458" data-name="Línea 458" x2="5.609" transform="translate(494.537 868.583)" fill="none" stroke="#32b4af" stroke-linecap="round" stroke-miterlimit="10" stroke-width="1"/>
  </g>
</svg>
