<svg xmlns="http://www.w3.org/2000/svg" width="38.236" height="38.234" viewBox="0 0 38.236 38.234">
  <path id="Trazado_696" data-name="Trazado 696" d="M25.021,9.072H17.965V2.016A2.022,2.022,0,0,0,15.949,0h-4.86A2.022,2.022,0,0,0,9.072,2.016V9.072H2.016A2.022,2.022,0,0,0,0,11.088v4.86a2.022,2.022,0,0,0,2.016,2.016H9.072v7.056a2.022,2.022,0,0,0,2.016,2.016h4.86a2.022,2.022,0,0,0,2.016-2.016V17.965h7.056a2.022,2.022,0,0,0,2.016-2.016v-4.86A2.022,2.022,0,0,0,25.021,9.072Z" transform="translate(0 19.117) rotate(-45)" fill="#f50707"/>
</svg>
