<svg xmlns="http://www.w3.org/2000/svg" width="22.645" height="29.975" viewBox="0 0 22.645 29.975">
  <g id="Grupo_1370" data-name="Grupo 1370" transform="translate(-36 -273.5)">
    <line id="Línea_344" data-name="Línea 344" x2="7.39" transform="translate(39.578 287.035)" fill="none" stroke="#eaf1fb" stroke-linecap="round" stroke-miterlimit="10" stroke-width="1"/>
    <line id="Línea_345" data-name="Línea 345" x2="10.939" transform="translate(39.578 290.572)" fill="none" stroke="#eaf1fb" stroke-linecap="round" stroke-miterlimit="10" stroke-width="1"/>
    <line id="Línea_346" data-name="Línea 346" x2="10.939" transform="translate(39.578 294.121)" fill="none" stroke="#eaf1fb" stroke-linecap="round" stroke-miterlimit="10" stroke-width="1"/>
    <line id="Línea_347" data-name="Línea 347" x2="10.939" transform="translate(39.578 297.668)" fill="none" stroke="#eaf1fb" stroke-linecap="round" stroke-miterlimit="10" stroke-width="1"/>
    <path id="Trazado_654" data-name="Trazado 654" d="M932,14.722H916.035A1.035,1.035,0,0,1,915,13.688V-9.965A1.035,1.035,0,0,1,916.035-11h12.418l4.583,4.435V13.688A1.035,1.035,0,0,1,932,14.722Z" transform="translate(-879 288.752)" fill="#7fb423"/>
    <path id="Trazado_655" data-name="Trazado 655" d="M966.1-10.161h-6.274a.653.653,0,0,1-.653-.653v-6.038" transform="translate(-911.042 292.875)" fill="none" stroke="#263746" stroke-linecap="round" stroke-miterlimit="10" stroke-width="1"/>
    <rect id="Rectángulo_550" data-name="Rectángulo 550" width="18.035" height="25.722" rx="2" transform="translate(40.109 274)" fill="none" stroke="#7fb423" stroke-miterlimit="10" stroke-width="1"/>
  </g>
</svg>
