<svg xmlns="http://www.w3.org/2000/svg" width="29.019" height="25.627" viewBox="0 0 29.019 25.627">
  <g id="Grupo_1478" data-name="Grupo 1478" transform="translate(0 -0.001)">
    <g id="Grupo_1477" data-name="Grupo 1477" transform="translate(0 0)">
      <path id="Trazado_1052" data-name="Trazado 1052" d="M25.477,36.038V31.368a1.435,1.435,0,0,0-2.139-1.25A33.4,33.4,0,0,1,9.407,34.3c-.038,0-4.5.022-4.5.022a2.193,2.193,0,0,0-2.174,1.932H1.818A1.82,1.82,0,0,0,0,38.073v3.994a1.82,1.82,0,0,0,1.818,1.818h.916a2.2,2.2,0,0,0,1.291,1.746l3.258,8.992a1.426,1.426,0,0,0,1.336.936h3.27a1.422,1.422,0,0,0,1.337-1.908l-2.8-7.722A33.35,33.35,0,0,1,23.338,50.02a1.426,1.426,0,0,0,1.431-.014,1.42,1.42,0,0,0,.708-1.236V44.1a4.065,4.065,0,0,0,0-8.063ZM2.718,42.483h-.9a.416.416,0,0,1-.416-.416V38.073a.416.416,0,0,1,.416-.416h.9Zm1.869,1.863a.789.789,0,0,1-.467-.719V36.513h0a.789.789,0,0,1,.788-.788H8.724v8.69s-3.85,0-3.866,0A.735.735,0,0,1,4.587,44.346Zm7.321,9.783a.016.016,0,0,1,0,.018.016.016,0,0,1-.016.009H8.619a.02.02,0,0,1-.019-.012L5.584,45.817H8.894ZM24.075,48.77a.025.025,0,0,1-.015.027.032.032,0,0,1-.037,0,34.755,34.755,0,0,0-13.9-4.305V35.648a34.764,34.764,0,0,0,13.9-4.306.033.033,0,0,1,.038,0,.025.025,0,0,1,.015.027Zm1.4-6.088V37.457a2.665,2.665,0,0,1,0,5.225Z" transform="translate(0 -29.933)" fill="#bf903f"/>
    </g>
  </g>
</svg>
