<svg xmlns="http://www.w3.org/2000/svg" width="29.59" height="29.457" viewBox="0 0 29.59 29.457">
  <path id="Trazado_612" data-name="Trazado 612" d="M24.216,14.222a.774.774,0,0,0-.811.854V27.121H17.426V22.252a.843.843,0,0,0-.769-.854H12.386a.9.9,0,0,0-.9.854v4.869H5.595V15.5a.82.82,0,0,0-.811-.854.774.774,0,0,0-.811.854V28.1a.848.848,0,0,0,.811.854h7.6a.808.808,0,0,0,.726-.854v-5H15.76v5a.926.926,0,0,0,.9.854h7.517a.879.879,0,0,0,.811-.854V15.077a.789.789,0,0,0-.769-.854Zm4.527.641h0C23.277,9.012,19.9,5.424,15.034.342A.618.618,0,0,0,14.521,0a.667.667,0,0,0-.641.342L.256,14.778A1.026,1.026,0,0,0,0,15.418a.689.689,0,0,0,.256.555.679.679,0,0,0,1.153,0l13.112-13.8L27.591,16.187a.774.774,0,0,0,.6.214.738.738,0,0,0,.555-.214.983.983,0,0,0,0-1.324Z" transform="translate(0.25 0.25)" fill="#d50590" stroke="#d50590" stroke-width="0.5" fill-rule="evenodd"/>
</svg>
