<svg xmlns="http://www.w3.org/2000/svg" width="25" height="28.285" viewBox="0 0 25 28.285">
  <g id="Grupo_1322" data-name="Grupo 1322" opacity="0.5">
    <g id="Grupo_255" data-name="Grupo 255" transform="translate(10.729)">
      <rect id="Rectángulo_133" data-name="Rectángulo 133" width="3.543" height="12.046" fill="#fff"/>
    </g>
    <path id="Trazado_207" data-name="Trazado 207" d="M16.429,5.5V8.453A9.244,9.244,0,0,1,22.143,16.9a9.512,9.512,0,0,1-9.643,9.27A9.512,9.512,0,0,1,2.857,16.9,9.244,9.244,0,0,1,8.571,8.453V5.5A12.059,12.059,0,0,0,0,16.9,12.324,12.324,0,0,0,12.5,28.914,12.324,12.324,0,0,0,25,16.9,12.059,12.059,0,0,0,16.429,5.5Z" transform="translate(0 -0.629)" fill="#fff"/>
  </g>
</svg>
