<svg xmlns="http://www.w3.org/2000/svg" width="31" height="31" viewBox="0 0 31 31">
  <g id="baseline-settings-20px" opacity="0.5">
    <path id="Trazado_199" data-name="Trazado 199" d="M0,0H31V31H0Z" fill="none"/>
    <path id="Trazado_200" data-name="Trazado 200" d="M23.5,15.609a10.117,10.117,0,0,0,.077-1.209,7.645,7.645,0,0,0-.093-1.209l2.62-2.046a.641.641,0,0,0,.155-.79l-2.48-4.294a.63.63,0,0,0-.76-.279l-3.084,1.24a9.081,9.081,0,0,0-2.093-1.209l-.465-3.286A.619.619,0,0,0,16.758,2H11.8a.6.6,0,0,0-.6.527l-.465,3.286A9.324,9.324,0,0,0,8.636,7.022L5.551,5.782a.613.613,0,0,0-.76.279l-2.48,4.293a.6.6,0,0,0,.155.791l2.62,2.046a7.3,7.3,0,0,0-.015,2.418L2.451,17.655a.641.641,0,0,0-.155.79l2.48,4.294a.63.63,0,0,0,.76.279l3.084-1.24a9.081,9.081,0,0,0,2.093,1.209l.465,3.286a.631.631,0,0,0,.62.527h4.96a.592.592,0,0,0,.6-.527l.465-3.286a9.324,9.324,0,0,0,2.093-1.209L23,23.018a.613.613,0,0,0,.759-.279l2.48-4.294a.6.6,0,0,0-.155-.79L23.5,15.609ZM14.278,19.05a4.65,4.65,0,1,1,4.65-4.65A4.664,4.664,0,0,1,14.278,19.05Z" transform="translate(1.222 1.1)" fill="#fff"/>
  </g>
</svg>
