<svg xmlns="http://www.w3.org/2000/svg" width="36.227" height="25.719" viewBox="0 0 36.227 25.719">
  <g id="Grupo_1368" data-name="Grupo 1368" transform="translate(-632.378 -868.75)">
    <g id="Grupo_1358" data-name="Grupo 1358" transform="translate(634.428 870)">
      <path id="Trazado_1030" data-name="Trazado 1030" d="M643.182,909.033a2.547,2.547,0,1,1-2.547-2.547A2.547,2.547,0,0,1,643.182,909.033Z" transform="translate(-638.089 -897.284)" fill="none" stroke="#f56b22" stroke-width="2.5"/>
      <path id="Trazado_1031" data-name="Trazado 1031" d="M673.93,887.667a2.547,2.547,0,1,1-2.547-2.547A2.547,2.547,0,0,1,673.93,887.667Z" transform="translate(-659.85 -882.162)" fill="none" stroke="#f56b22" stroke-width="2.5"/>
      <path id="Trazado_1032" data-name="Trazado 1032" d="M704.4,898.631a2.547,2.547,0,1,1-2.547-2.547A2.547,2.547,0,0,1,704.4,898.631Z" transform="translate(-681.415 -889.922)" fill="none" stroke="#f56b22" stroke-width="2.5"/>
      <circle id="Elipse_184" data-name="Elipse 184" cx="2.547" cy="2.547" r="2.547" transform="translate(26.922)" fill="none" stroke="#f56b22" stroke-width="2.5"/>
      <line id="Línea_459" data-name="Línea 459" y1="3.122" x2="4.656" transform="translate(4.453 7.011)" fill="none" stroke="#f56b22" stroke-width="2.5"/>
      <line id="Línea_460" data-name="Línea 460" x2="3.834" y2="1.26" transform="translate(13.983 6.518)" fill="none" stroke="#f56b22" stroke-width="2.5"/>
      <line id="Línea_461" data-name="Línea 461" y1="3.286" x2="4.491" transform="translate(22.308 3.834)" fill="none" stroke="#f56b22" stroke-width="2.5"/>
    </g>
    <path id="Trazado_1033" data-name="Trazado 1033" d="M0,5H34.227" transform="translate(633.378 888.468)" fill="none" stroke="#f56b22" stroke-linecap="round" stroke-width="2"/>
  </g>
</svg>
