<svg xmlns="http://www.w3.org/2000/svg" width="70.835" height="60.643" viewBox="0 0 70.835 60.643">
  <g id="Grupo_1052" data-name="Grupo 1052" transform="translate(0 0)">
    <path id="Trazado_630" data-name="Trazado 630" d="M42.641,64.54c-3.55-.825-5.535-1.288-6.3-5.131V59.4l-.018-.177.007-.029.137-.034,1.64.454c2.126.506,4.129.978,6.141,5.353-.469-.13-1.6-.427-1.6-.427M24.551,44.852a9.617,9.617,0,0,0,1.01,2.838,8.86,8.86,0,0,1,1.121,4.939,18.265,18.265,0,0,1-.436,2.844,7.67,7.67,0,0,1-3.114-6.42,9.877,9.877,0,0,1,1.209-4Zm4.265,7.514,1.377,1.026c1.66,1.121,3.687,2.527,4.817,7.361a8.9,8.9,0,0,1-5.628-3.837,6.538,6.538,0,0,1-.858-3.554,4.363,4.363,0,0,1,.146-.908ZM22.823,65.092c.472-.269.976-.617,1.578-1.045,2.181-1.517,5.2-3.57,10.54-.949-4.077,4.529-10.221,2.96-12.085,2.031Zm-7.086-7.766-.07-.071-.033-.1,1.195-.26c3.273-.65,7.762-1.5,11.31,2.905C21.094,62.941,17.342,59,15.737,57.326Zm-3.9-9.13-.01-.017c-.276-.558-.171-.649-.168-.658l.213-.013,1.393.29c2.187.406,5.526.994,8.126,6.094C15.406,54.51,12.876,51.141,11.838,48.2ZM16.829,27.13l.425,1.389a12.484,12.484,0,0,1,.787,4.868,12.518,12.518,0,0,1-1.447,5,8.166,8.166,0,0,1-1.8-5.669,11.927,11.927,0,0,1,1.812-5.535Zm3.687,9.589.055.169.593,2.08a9.85,9.85,0,0,1,.669,3.831A15.472,15.472,0,0,1,20.4,47.843a9.442,9.442,0,0,1-1.995-6.115,8.708,8.708,0,0,1,1.73-4.738ZM9.964,36.6l.123-.219.2.055.96.567c1.988,1.153,4.947,2.911,5.408,8.918a9.811,9.811,0,0,1-6.7-9.281Zm20.9,31.561v-.019l.11-.18A18.641,18.641,0,0,0,33.264,67c2.533-1.193,5.4-2.523,10.094-.512l.851.42-.436.167a6.921,6.921,0,0,0-1.785.944c-3.768,2.806-9.369.889-11,.209Zm15.649-3.191c2.02-4.375,4.018-4.848,6.148-5.353l1.643-.454.152.034,0,.029-.008.177-.007.01c-.769,3.842-2.767,4.306-6.321,5.131C48.122,64.54,46.989,64.837,46.513,64.967ZM66.425,45.049a9.823,9.823,0,0,1,1.21,4,7.686,7.686,0,0,1-3.11,6.42,18.149,18.149,0,0,1-.445-2.844A9.015,9.015,0,0,1,65.2,47.69a9.187,9.187,0,0,0,1.013-2.838Zm-4.3,7.4a8.514,8.514,0,0,1,.127.908,6.566,6.566,0,0,1-.862,3.554,8.91,8.91,0,0,1-5.631,3.837c1.14-4.834,3.169-6.24,4.825-7.361l1.372-1.026Zm5.809,12.675c-1.858.929-8.027,2.5-12.084-2.031,5.333-2.62,8.344-.567,10.523.949.612.428,1.1.776,1.574,1.045ZM62.63,59.8c3.542-4.41,8.033-3.556,11.319-2.905l1.183.26-.029.1-.074.071C73.428,59,69.67,62.941,62.63,59.8Zm6.741-5.906c2.6-5.1,5.941-5.688,8.131-6.094l1.39-.29.22.013c0,.009.1.1-.172.658l-.008.017C77.911,51.141,75.361,54.51,69.371,53.893Zm4.782-26.714a11.6,11.6,0,0,1,1.821,5.535,8.167,8.167,0,0,1-1.8,5.669,13.187,13.187,0,0,1-1.456-5,12.535,12.535,0,0,1,.8-4.868l.431-1.389ZM70.629,36.99a8.645,8.645,0,0,1,1.73,4.738,9.392,9.392,0,0,1-2,6.115A15.435,15.435,0,0,1,68.936,42.8a10.069,10.069,0,0,1,.66-3.831l.607-2.08.05-.169Zm10.17-.354a9.759,9.759,0,0,1-6.689,9.281c.464-6.007,3.43-7.766,5.431-8.918l.932-.567.225-.055.1.219Zm-21,31.6c-1.628.68-7.247,2.6-11.018-.209A7.2,7.2,0,0,0,47,67.079l-.444-.167.849-.42c4.711-2.011,7.566-.68,10.1.512a20.359,20.359,0,0,0,2.294.953l.1.18v.019ZM56.445,26.45V37.3H52.234V16.033h4.211V25.92h.073l4.57-9.886h4.184l-4.917,9.851,2.674,5.7C68.971,20.5,69.448,12.3,69.448,12.3S62.32,8.861,45.376,8.861h0c-16.944,0-24.056,3.443-24.056,3.443s.5,8.445,6.686,19.775l.033-.032c.383.563,1,1.954,2.4,1.954a2.221,2.221,0,0,0,2.392-2.189c0-1.57-.719-2.46-2.729-4.155-2.309-1.978-3.369-3.723-3.369-6.048,0-3.583,2.33-5.85,5.663-5.85a6.666,6.666,0,0,1,4.149,1.222l-.775,2.87a4.34,4.34,0,0,0-2.664-.8,2.076,2.076,0,0,0-2.2,2.237c0,1.439.642,2.257,2.619,3.935,2.418,2.066,3.725,3.638,3.725,6.307a5.685,5.685,0,0,1-5.964,6.054C38.577,48.9,45.33,53.935,45.33,53.935h.087S52.8,48.446,60.48,36.011L56.518,26.45Zm-7.264-7.115H44.265V24.89h4.323v3.154H44.265V34h4.916v3.3h-9.16V16.033h9.16Z" transform="translate(-9.964 -8.861)" fill="#24252B"/>
  </g>
</svg>
