<svg xmlns="http://www.w3.org/2000/svg" width="60" height="34.582" viewBox="0 0 60 34.582"><path d="M912.362,300.85l-11.946,3.121v-5.3a4.167,4.167,0,0,0-4.167-4.167H859.167A4.167,4.167,0,0,0,855,298.672v26.25a4.167,4.167,0,0,0,4.167,4.167H896.25a4.167,4.167,0,0,0,4.167-4.167v-4.91l11.946,2.731A2.638,2.638,0,0,0,915,320.105V303.488A2.637,2.637,0,0,0,912.362,300.85Zm-25.2,11.975-13.622,8.215c-1.035.687-1.876.287-1.876-.955V303.5c0-1.2.852-1.643,1.907-.955l13.55,7.777A1.4,1.4,0,0,1,887.165,312.825Z" transform="translate(-855 -294.506)" fill="#263746" opacity="0.5"/></svg>