<svg xmlns="http://www.w3.org/2000/svg" width="67.413" height="33.5" viewBox="0 0 67.413 33.5"><g transform="translate(-490.575 -20.5)" opacity="0.5"><g transform="translate(509.221 22.013)"><ellipse cx="7.649" cy="7.649" rx="7.649" ry="7.649" transform="translate(7.649 0)" fill="none" stroke="#263746" stroke-miterlimit="10" stroke-width="3"/><path d="M271.25-18.419a15.3,15.3,0,0,1,15.3-15.3,15.3,15.3,0,0,1,15.3,15.3" transform="translate(-271.25 50.406)" fill="none" stroke="#263746" stroke-miterlimit="10" stroke-width="3"/></g><g transform="translate(492.075 22)"><ellipse cx="5.165" cy="5.165" rx="5.165" ry="5.165" transform="translate(5.165 0)" fill="none" stroke="#263746" stroke-miterlimit="10" stroke-width="3"/><path d="M271.25-23.388a10.329,10.329,0,0,1,10.329-10.329,10.33,10.33,0,0,1,10.33,10.329" transform="translate(-271.25 44.986)" fill="none" stroke="#263746" stroke-miterlimit="10" stroke-width="3"/></g><g transform="translate(535.828 22)"><ellipse cx="5.165" cy="5.165" rx="5.165" ry="5.165" transform="translate(5.165 0)" fill="none" stroke="#263746" stroke-miterlimit="10" stroke-width="3"/><path d="M271.25-23.388a10.329,10.329,0,0,1,10.329-10.329,10.33,10.33,0,0,1,10.33,10.329" transform="translate(-271.25 44.986)" fill="none" stroke="#263746" stroke-miterlimit="10" stroke-width="3"/></g></g></svg>