<svg xmlns="http://www.w3.org/2000/svg" width="62" height="62.387" viewBox="0 0 62 62.387"><g transform="translate(-151.031 -346.961)" opacity="0.5"><path d="M195.779,350a43.371,43.371,0,0,1,4.693,2.911,3.321,3.321,0,0,1,.58,1.063,46.992,46.992,0,0,0-5.477-3.407,3.608,3.608,0,0,0,.2-.568Zm6.227,4.136A27.22,27.22,0,0,1,204.929,357a5.789,5.789,0,0,1,.847,1.283,45.972,45.972,0,0,0-4.291-4.008,3.408,3.408,0,0,0-.657-1.075l1.177.933Zm8.346,11.211a31.008,31.008,0,0,1,1.495,4.171h0c.174.7.174.7.343,1.448a23.428,23.428,0,0,0-1.586-3.826,26.846,26.846,0,0,0-1.052-3.387c.419.8.419.8.8,1.594Zm1.675,4.836c.153.581.284,1.179.4,1.753-.071-.329-.071-.329-.175-.7-.1-.514-.1-.514-.223-1.05Zm.69,3.413a30.835,30.835,0,0,1,.286,5.726,10.736,10.736,0,0,0-.294-2.317,36.086,36.086,0,0,0-.264-4.667,11.8,11.8,0,0,1,.271,1.257Zm.195,7.149-.012.078a37.177,37.177,0,0,1-.83,4.783,4.181,4.181,0,0,0-.422-1.6,39.639,39.639,0,0,0,.953-5.6,7.872,7.872,0,0,1,.311,2.339Zm-.136,1.176a28.01,28.01,0,0,1-.753,4,.916.916,0,0,0,.036-.235,31.2,31.2,0,0,0,.718-3.762ZM202.662,401.4l-.868.749a9.233,9.233,0,0,1-2.049,1.17,39.975,39.975,0,0,0,3.928-3.883,5.171,5.171,0,0,0,1.629-.755c-1.309,1.42-1.309,1.42-2.638,2.719Zm-8.623,5.56a.518.518,0,0,0-.212.088.213.213,0,0,1,.127-.061c.045-.033.045-.033.085-.027Zm-42.886-20.891a2.077,2.077,0,0,1-.122-.4h0c.028.084.028.084.071.19a.927.927,0,0,1,.051.206Zm32.706,22.29a35.054,35.054,0,0,0,5.43-.171,20.52,20.52,0,0,1-3.18,1,35.437,35.437,0,0,1-5.006.134,13.155,13.155,0,0,0,2.757-.966Zm-7.142-1.2a52.239,52.239,0,0,0,6.629,1.163,14.087,14.087,0,0,1-2.718.973,39.711,39.711,0,0,1-5.814-1,11.419,11.419,0,0,0,1.9-1.133Zm17.906-1.987a21.82,21.82,0,0,0,3.8-.91,36.751,36.751,0,0,1-3.785,2.389,26.972,26.972,0,0,1-3.984,1.043,38.94,38.94,0,0,0,3.964-2.522Zm-6.1-.029a38.672,38.672,0,0,0,5.714.071,38.257,38.257,0,0,1-3.987,2.539,38.109,38.109,0,0,1-5.486.142,36.447,36.447,0,0,0,3.759-2.752Zm-8.087-1.68a59.825,59.825,0,0,0,7.541,1.6,32.838,32.838,0,0,1-3.765,2.791,55.555,55.555,0,0,1-6.818-1.232c1.4-1.348,1.4-1.348,3.042-3.158ZM162.8,394.9a76.552,76.552,0,0,0,7.808,4.629c-1.017,2.143-1.017,2.143-1.817,3.779a62.44,62.44,0,0,1-6.729-4.11,37.871,37.871,0,0,1,.738-4.3Zm37.368,4.873a13.69,13.69,0,0,0,3.272-.271,45.444,45.444,0,0,1-3.933,3.921,25.17,25.17,0,0,1-3.709.806,47.393,47.393,0,0,0,4.37-4.456Zm-5.932-.882a38.089,38.089,0,0,0,5.581.829,46.808,46.808,0,0,1-4.421,4.528,34.821,34.821,0,0,1-5.7-.188,62.642,62.642,0,0,0,4.537-5.169Zm-18.859-7.03c4.813,2.231,4.813,2.231,9.479,4.12-2.144,3.292-2.144,3.292-4.124,6.01a82.426,82.426,0,0,1-8.69-3.526c1.522-3,1.522-3,3.334-6.6ZM157.892,381.1c3.139,2.361,3.139,2.361,6.875,4.87-1.248,3.7-1.248,3.7-2.17,6.957a67.2,67.2,0,0,1-6.132-5.039,58.913,58.913,0,0,1,1.428-6.788ZM208.1,392.989a4.615,4.615,0,0,0,.97.184,47.8,47.8,0,0,1-2.887,4.4,3.768,3.768,0,0,1-1.487.616,52.449,52.449,0,0,0,3.4-5.2Zm-2.711-.941c1.531.566,1.531.566,2.578.9a50.733,50.733,0,0,1-3.455,5.27,15.048,15.048,0,0,1-3.136.033,68.141,68.141,0,0,0,4.014-6.2Zm-5.344-2.29c2.844,1.261,2.844,1.261,5.027,2.143a64.609,64.609,0,0,1-4.053,6.338c-2.453-.4-2.453-.4-5.478-1.113,2.3-3.507,2.3-3.507,4.5-7.368Zm-8.482-3.853,7.914,3.649c-2.209,3.859-2.209,3.859-4.533,7.424-3.754-1.176-3.754-1.176-8.053-2.712,2.355-4.038,2.355-4.038,4.672-8.361Zm-21.368-10.554c4.762,2.443,4.762,2.443,9.832,4.97-2.28,4.608-2.28,4.608-4.379,8.942-4.813-2.51-4.813-2.51-9.318-5.074,1.8-4.32,1.8-4.32,3.866-8.839Zm41.015,10.261a3.3,3.3,0,0,1,.479,1.348,43.1,43.1,0,0,1-1.948,4.916c-.278-.141-.278-.141-.851-.446a53.144,53.144,0,0,0,2.321-5.818Zm-2.051-2.439a15.781,15.781,0,0,1,1.957,2.266,53.044,53.044,0,0,1-2.338,5.935c-.985-.485-.985-.485-2.431-1.218a66.991,66.991,0,0,0,2.812-6.982Zm-4.594-3.713a52.784,52.784,0,0,1,4.334,3.456,71.011,71.011,0,0,1-2.83,7.1c-2.115-1.071-2.115-1.071-4.9-2.443,1.842-4.074,1.842-4.074,3.4-8.11Zm-7.717-4.975c3.949,2.421,3.949,2.421,7.233,4.6-1.585,4.091-1.585,4.091-3.454,8.222-3.584-1.789-3.584-1.789-7.8-3.872,2.129-4.53,2.129-4.53,4.023-8.955Zm-10.152-5.5c4.868,2.538,4.868,2.538,9.418,5.069-1.917,4.442-1.917,4.442-4.068,8.988-4.813-2.37-4.813-2.37-9.865-4.875,2.308-4.664,2.308-4.664,4.515-9.182Zm-19.49-8.16c3.775,1.3,3.775,1.3,8.091,3-2.355,4.177-2.355,4.177-4.674,8.639-4.218-2.082-4.218-2.082-7.84-3.877,2.109-3.995,2.109-3.995,4.424-7.759Zm-9.408-1.777a16.8,16.8,0,0,1,3.022.19,67.706,67.706,0,0,0-3.859,6.507c-1.468-.717-1.468-.717-2.475-1.186a51.361,51.361,0,0,1,3.312-5.51Zm53.075,15.8a17.233,17.233,0,0,1,1.66,3.318,43.593,43.593,0,0,1-.98,5.658,12.9,12.9,0,0,0-1.855-2.549,49.269,49.269,0,0,0,1.175-6.427Zm-3.92-4.63a39.965,39.965,0,0,1,3.709,4.3,50.777,50.777,0,0,1-1.186,6.505,44.257,44.257,0,0,0-4.193-3.734,66.56,66.56,0,0,0,1.669-7.071Zm-6.671-5.438a71.033,71.033,0,0,1,6.238,4.995,64.134,64.134,0,0,1-1.7,7.166c-3.207-2.312-3.207-2.312-7.049-4.777,1.423-3.937,1.423-3.937,2.513-7.384Zm-18.635-9.35a94.015,94.015,0,0,1,8.924,3.7c-1.648,3.3-1.648,3.3-3.572,7.128-4.886-2.282-4.886-2.282-9.635-4.283,2.224-3.558,2.224-3.558,4.283-6.543Zm29.145,12.845a25.4,25.4,0,0,1,1.591,3.787,34.8,34.8,0,0,1,.224,4.66,21.363,21.363,0,0,0-1.62-3.452,35.323,35.323,0,0,0-.2-4.995Zm-3.488-4.847a40.558,40.558,0,0,1,3.283,4.476,36.982,36.982,0,0,1,.189,5.034,38.173,38.173,0,0,0-3.607-4.445,37.037,37.037,0,0,0,.134-5.066Zm-5.641-5.125a55.762,55.762,0,0,1,5.264,4.71,34.425,34.425,0,0,1-.157,5.083,62.573,62.573,0,0,0-6.021-4.983c.578-2.686.578-2.686.914-4.81Zm-7.5-4.684a67.749,67.749,0,0,1,6.945,4.262c-.358,2.14-.358,2.14-.969,4.782-3.865-2.449-3.865-2.449-8.031-4.743,1.141-2.443,1.141-2.443,2.055-4.3Zm-8.267-3.283a66.041,66.041,0,0,1,7.617,2.967c-.954,1.852-.954,1.852-2.15,4.267a83.883,83.883,0,0,0-8.668-3.541c1.731-2.116,1.731-2.116,3.2-3.693Zm20.511,8.931a33.4,33.4,0,0,1,2.94,4.107,21.145,21.145,0,0,1,1.03,3.4,39.259,39.259,0,0,0-3.205-4.464,22.156,22.156,0,0,0-.765-3.046Zm-4.813-4.524a40.832,40.832,0,0,1,4.469,4.154,18.4,18.4,0,0,1,.765,3.045,49.107,49.107,0,0,0-5.113-4.649,12.1,12.1,0,0,0-.12-2.55Zm-6.143-3.885a59.582,59.582,0,0,1,5.716,3.542,12.949,12.949,0,0,1,.048,2.5,61.013,61.013,0,0,0-6.673-4.082c.531-1.158.531-1.158.91-1.959Zm-13.381-3.9a42.864,42.864,0,0,1,6,1.071,14.061,14.061,0,0,0-2.09,1.445,56.561,56.561,0,0,0-6.811-1.272,17.844,17.844,0,0,1,2.9-1.244Z" fill="#263746" fill-rule="evenodd"/></g></svg>